<svg width="24" height="24" viewBox="0 0 24 24" fill="none" xmlns="http://www.w3.org/2000/svg">
<g id="icons8-check 1">
<path id="Vector" opacity="0.35" d="M18 21H6C4.343 21 3 19.657 3 18V6C3 4.343 4.343 3 6 3H18C19.657 3 21 4.343 21 6V18C21 19.657 19.657 21 18 21Z" fill="#DBEEA8"/>
<path id="Vector_2" d="M11.0002 15.9998C10.7442 15.9998 10.4883 15.9018 10.2933 15.7068L7.29325 12.7068C6.90225 12.3158 6.90225 11.6838 7.29325 11.2928C7.68425 10.9018 8.31625 10.9018 8.70725 11.2928L11.0002 13.5858L15.2933 9.29276C15.6842 8.90176 16.3163 8.90176 16.7073 9.29276C17.0983 9.68376 17.0983 10.3158 16.7073 10.7068L11.7072 15.7068C11.5122 15.9018 11.2562 15.9998 11.0002 15.9998Z" fill="#DBEEA8"/>
</g>
</svg>
