<svg width="24" height="24" viewBox="0 0 24 24" fill="none" xmlns="http://www.w3.org/2000/svg">
<g id="icons8-facebook">
<path id="Vector" opacity="0.35" d="M12 22C17.5228 22 22 17.5228 22 12C22 6.47715 17.5228 2 12 2C6.47715 2 2 6.47715 2 12C2 17.5228 6.47715 22 12 22Z" fill="#DBEEA8"/>
<path id="Vector_2" d="M10.5052 10.272V12.021H8.03125V14.65H10.5052V21.876C10.9943 21.95 11.4912 22 12.0002 22C12.4602 22 12.9102 21.958 13.3542 21.898V14.65H15.9423L16.3482 12.021H13.3532V10.584C13.3532 9.49198 13.7103 8.52298 14.7323 8.52298H16.3743V6.22898C16.0853 6.18998 15.4762 6.10498 14.3232 6.10498C11.9162 6.10498 10.5052 7.37598 10.5052 10.272Z" fill="#DBEEA8"/>
</g>
</svg>
