<svg width="16" height="16" viewBox="0 0 16 16" fill="none" xmlns="http://www.w3.org/2000/svg">
<path opacity="0.35" d="M12 14H4C2.89533 14 2 13.1047 2 12V4C2 2.89533 2.89533 2 4 2H12C13.1047 2 14 2.89533 14 4V12C14 13.1047 13.1047 14 12 14Z" fill="#5667EA"/>
<path d="M6.2361 11.2934C6.2001 11.2934 6.1641 11.2907 6.12743 11.2847C5.7641 11.2254 5.5181 10.882 5.57743 10.5187L6.43943 5.26537C6.49877 4.90204 6.8361 4.65404 7.20543 4.71537C7.56876 4.77471 7.81476 5.11804 7.75543 5.48137L6.89343 10.7347C6.8401 11.0614 6.55743 11.2934 6.2361 11.2934Z" fill="#5667EA"/>
<path d="M8.9026 11.2934C8.8666 11.2934 8.8306 11.2907 8.79394 11.2847C8.4306 11.2254 8.1846 10.882 8.24394 10.5187L9.10594 5.26537C9.16527 4.90204 9.50527 4.65404 9.87193 4.71537C10.2353 4.77471 10.4813 5.11804 10.4219 5.48137L9.55994 10.7347C9.5066 11.0614 9.22394 11.2934 8.9026 11.2934Z" fill="#5667EA"/>
<path d="M10.3334 7.00008H6.33341C5.96541 7.00008 5.66675 6.70141 5.66675 6.33341C5.66675 5.96541 5.96541 5.66675 6.33341 5.66675H10.3334C10.7014 5.66675 11.0001 5.96541 11.0001 6.33341C11.0001 6.70141 10.7014 7.00008 10.3334 7.00008Z" fill="#5667EA"/>
<path d="M9.66667 10.3333H5.66667C5.29867 10.3333 5 10.0347 5 9.66667C5 9.29867 5.29867 9 5.66667 9H9.66667C10.0347 9 10.3333 9.29867 10.3333 9.66667C10.3333 10.0347 10.0347 10.3333 9.66667 10.3333Z" fill="#5667EA"/>
</svg>
