<svg width="24" height="24" viewBox="0 0 24 24" fill="none" xmlns="http://www.w3.org/2000/svg">
<g id="icons8-instagram">
<path id="Vector" opacity="0.35" d="M16 21H8C5.239 21 3 18.761 3 16V8C3 5.239 5.239 3 8 3H16C18.761 3 21 5.239 21 8V16C21 18.761 18.761 21 16 21Z" fill="#DBEEA8"/>
<path id="Vector_2" d="M12 7C9.239 7 7 9.239 7 12C7 14.761 9.239 17 12 17C14.761 17 17 14.761 17 12C17 9.239 14.761 7 12 7ZM12 15C10.343 15 9 13.657 9 12C9 10.343 10.343 9 12 9C13.657 9 15 10.343 15 12C15 13.657 13.657 15 12 15Z" fill="#DBEEA8"/>
<path id="Vector_3" d="M17 8C17.5523 8 18 7.55228 18 7C18 6.44772 17.5523 6 17 6C16.4477 6 16 6.44772 16 7C16 7.55228 16.4477 8 17 8Z" fill="#DBEEA8"/>
</g>
</svg>
