<svg width="25" height="24" viewBox="0 0 25 24" fill="none" xmlns="http://www.w3.org/2000/svg">
<g id="icons8-invest">
<path id="Vector" opacity="0.35" d="M12.5996 11C15.361 11 17.5996 8.76142 17.5996 6C17.5996 3.23858 15.361 1 12.5996 1C9.83819 1 7.59961 3.23858 7.59961 6C7.59961 8.76142 9.83819 11 12.5996 11Z" fill="#5667EA"/>
<path id="Vector_2" d="M19.3758 10.028C17.9588 10.274 16.1868 10.842 14.8918 12.137C14.3358 12.693 13.9198 13.338 13.5998 14.004V10.9C13.2768 10.965 12.9428 11 12.5998 11C12.2568 11 11.9228 10.965 11.5998 10.899V14.004C11.2798 13.338 10.8638 12.693 10.3078 12.137C9.01284 10.842 7.24084 10.274 5.82384 10.028C4.53684 9.80499 3.40484 10.937 3.62784 12.224C3.87384 13.641 4.44184 15.413 5.73684 16.708C7.51084 18.482 10.1708 18.89 11.5998 18.977V22C11.5998 22.552 12.0478 23 12.5998 23C13.1518 23 13.5998 22.552 13.5998 22V18.977C15.0288 18.89 17.6888 18.482 19.4628 16.708C20.7578 15.413 21.3258 13.641 21.5718 12.224C21.7948 10.937 20.6628 9.80499 19.3758 10.028Z" fill="#5667EA"/>
<path id="Vector_3" d="M14.3311 7.227C14.3311 5.341 12.2491 5.599 12.2491 4.616C12.2491 4.037 12.7041 3.976 12.8611 3.976C13.0161 3.976 13.1541 4.013 13.2701 4.065C13.5441 4.189 13.8681 4.074 14.0421 3.829C14.2641 3.515 14.1491 3.073 13.7981 2.915C13.6051 2.828 13.3651 2.759 13.0741 2.731V2.456C13.0751 2.204 12.8711 2 12.6191 2C12.3671 2 12.1631 2.204 12.1631 2.456V2.826C11.3991 3.081 10.9031 3.78 10.9031 4.675C10.9031 6.654 12.9591 6.297 12.9591 7.326C12.9591 7.524 12.8651 7.956 12.3551 7.956C12.1281 7.956 11.9331 7.892 11.7731 7.809C11.5031 7.667 11.1671 7.772 10.9951 8.024L10.9761 8.05C10.7771 8.341 10.8571 8.749 11.1641 8.923C11.4221 9.069 11.7371 9.183 12.1181 9.223V9.544C12.1181 9.796 12.3221 10 12.5741 10C12.8261 10 13.0301 9.796 13.0301 9.544V9.141C13.8751 8.882 14.3311 8.111 14.3311 7.227Z" fill="#5667EA"/>
</g>
</svg>
