<svg width="25" height="24" viewBox="0 0 25 24" fill="none" xmlns="http://www.w3.org/2000/svg">
<g id="icons8-passport">
<path id="Vector" opacity="0.35" d="M4.2002 21V3C4.2002 2.448 4.6482 2 5.2002 2H17.2002C18.8572 2 20.2002 3.343 20.2002 5V19C20.2002 20.657 18.8572 22 17.2002 22H5.2002C4.6482 22 4.2002 21.552 4.2002 21Z" fill="#5667EA"/>
<path id="Vector_2" d="M15.2002 17C15.0142 17 9.3862 17 9.2002 17C8.6482 17 8.2002 17.448 8.2002 18C8.2002 18.552 8.6482 19 9.2002 19C9.3862 19 15.0142 19 15.2002 19C15.7522 19 16.2002 18.552 16.2002 18C16.2002 17.448 15.7522 17 15.2002 17Z" fill="#5667EA"/>
<path id="Vector_3" d="M12.2002 5C9.4392 5 7.2002 7.239 7.2002 10C7.2002 12.761 9.4392 15 12.2002 15C14.9612 15 17.2002 12.761 17.2002 10C17.2002 7.239 14.9612 5 12.2002 5ZM12.2002 13C10.5432 13 9.2002 11.657 9.2002 10C9.2002 8.343 10.5432 7 12.2002 7C13.8572 7 15.2002 8.343 15.2002 10C15.2002 11.657 13.8572 13 12.2002 13Z" fill="#5667EA"/>
<path id="Vector_4" d="M15.2002 7H13.2002V7.971C13.2002 8.539 13.6612 9 14.2292 9H15.2002V7Z" fill="#5667EA"/>
<path id="Vector_5" d="M11.2002 13H9.2002V11H9.7742C10.5622 11 11.2002 11.638 11.2002 12.426V13Z" fill="#5667EA"/>
<path id="Vector_6" d="M9.7742 10H8.2002L9.2002 8L11.2002 7V8.574C11.2002 9.362 10.5622 10 9.7742 10Z" fill="#5667EA"/>
</g>
</svg>
