<svg width="32" height="32" viewBox="0 0 32 32" fill="none" xmlns="http://www.w3.org/2000/svg">
<g id="icons8-pin 1">
<path id="Vector" opacity="0.35" d="M5.33301 13.3334C5.33301 7.44275 10.109 2.66675 15.9997 2.66675C21.8903 2.66675 26.6663 7.44275 26.6663 13.3334C26.6663 18.0854 21.2477 24.8694 18.1343 28.3734C16.9997 29.6507 14.9997 29.6507 13.865 28.3734C10.7517 24.8694 5.33301 18.0854 5.33301 13.3334Z" fill="#5667EA"/>
<path id="Vector_2" d="M16 17.3333C18.2091 17.3333 20 15.5424 20 13.3333C20 11.1241 18.2091 9.33325 16 9.33325C13.7909 9.33325 12 11.1241 12 13.3333C12 15.5424 13.7909 17.3333 16 17.3333Z" fill="#5667EA"/>
</g>
</svg>
