<svg width="25" height="24" viewBox="0 0 25 24" fill="none" xmlns="http://www.w3.org/2000/svg">
<path opacity="0.35" d="M12.4004 22C17.9232 22 22.4004 17.5228 22.4004 12C22.4004 6.47715 17.9232 2 12.4004 2C6.87754 2 2.40039 6.47715 2.40039 12C2.40039 17.5228 6.87754 22 12.4004 22Z" fill="#DBEEA8"/>
<path d="M17.4004 13H7.40039C6.84839 13 6.40039 12.552 6.40039 12C6.40039 11.448 6.84839 11 7.40039 11H17.4004C17.9524 11 18.4004 11.448 18.4004 12C18.4004 12.552 17.9524 13 17.4004 13Z" fill="#DBEEA8"/>
<path d="M11.4004 17V7C11.4004 6.448 11.8484 6 12.4004 6C12.9524 6 13.4004 6.448 13.4004 7V17C13.4004 17.552 12.9524 18 12.4004 18C11.8484 18 11.4004 17.552 11.4004 17Z" fill="#DBEEA8"/>
</svg>
