<svg width="25" height="24" viewBox="0 0 25 24" fill="none" xmlns="http://www.w3.org/2000/svg">
<g id="icons8-real-estate">
<path id="Vector" opacity="0.35" d="M18.7998 21H6.7998C6.00416 21 5.24109 20.6839 4.67848 20.1213C4.11588 19.5587 3.7998 18.7957 3.7998 18V8.765C3.79978 8.23018 3.94273 7.70508 4.21385 7.24408C4.48497 6.78307 4.8744 6.40292 5.3418 6.143L11.3418 2.81C11.7875 2.56238 12.2889 2.43243 12.7988 2.43243C13.3087 2.43243 13.8101 2.56238 14.2558 2.81L20.2558 6.143C20.7236 6.40266 21.1134 6.7827 21.3849 7.24372C21.6564 7.70475 21.7996 8.22998 21.7998 8.765V18C21.7998 18.7957 21.4837 19.5587 20.9211 20.1213C20.3585 20.6839 19.5955 21 18.7998 21Z" fill="#5667EA"/>
<path id="Vector_2" d="M21.3 9.22997C21.0455 9.22991 20.7953 9.16486 20.573 9.04097L13.734 5.24097C13.4492 5.08165 13.1283 4.998 12.802 4.998C12.4757 4.998 12.1548 5.08165 11.87 5.24097L5.03102 9.04097C4.85879 9.13677 4.66938 9.19771 4.4736 9.22031C4.27782 9.24291 4.0795 9.22672 3.88998 9.17268C3.70045 9.11863 3.52343 9.02779 3.36901 8.90533C3.2146 8.78287 3.08581 8.6312 2.99002 8.45897C2.89422 8.28674 2.83328 8.09733 2.81068 7.90155C2.78808 7.70577 2.80427 7.50746 2.85831 7.31793C2.91235 7.12841 3.0032 6.95139 3.12566 6.79697C3.24811 6.64255 3.39979 6.51377 3.57202 6.41797L10.411 2.61797C11.1409 2.2091 11.9634 1.99438 12.8 1.99438C13.6366 1.99438 14.4592 2.2091 15.189 2.61797L22.028 6.41797C22.3189 6.57916 22.5479 6.83243 22.6792 7.13797C22.8104 7.4435 22.8364 7.78399 22.7531 8.10591C22.6697 8.42783 22.4818 8.71293 22.2187 8.9164C21.9557 9.11987 21.6325 9.23017 21.3 9.22997Z" fill="#5667EA"/>
<path id="Vector_3" d="M16.7998 21H8.7998V15L12.7998 13L16.7998 15V21Z" fill="#5667EA"/>
<path id="Vector_4" d="M16.7998 16C16.5834 16 16.3729 15.9298 16.1998 15.8L12.7998 13.25L9.39981 15.8C9.18764 15.9591 8.92094 16.0275 8.65839 15.9899C8.39584 15.9524 8.15894 15.8122 7.99981 15.6C7.84068 15.3878 7.77235 15.1211 7.80986 14.8586C7.84737 14.596 7.98764 14.3591 8.19981 14.2L12.1998 11.2C12.3729 11.0702 12.5834 11 12.7998 11C13.0162 11 13.2267 11.0702 13.3998 11.2L17.3998 14.2C17.5677 14.3259 17.6917 14.5015 17.7543 14.7018C17.8169 14.9022 17.8149 15.1171 17.7485 15.3162C17.6821 15.5153 17.5548 15.6885 17.3845 15.8112C17.2143 15.934 17.0097 16 16.7998 16Z" fill="#5667EA"/>
</g>
</svg>
