<svg width="32" height="33" viewBox="0 0 32 33" fill="none" xmlns="http://www.w3.org/2000/svg">
<g id="icons8-sun 1">
<path id="Vector" opacity="0.35" fill-rule="evenodd" clip-rule="evenodd" d="M14.7108 2.68683C14.9308 2.1695 15.4375 1.8335 16.0002 1.8335C16.5628 1.8335 17.0695 2.1695 17.2895 2.68683L18.6268 5.8415C18.7455 6.12283 18.9815 6.3375 19.2708 6.43216C19.5615 6.52683 19.8775 6.49083 20.1388 6.3335L23.0748 4.56816C23.5562 4.27883 24.1642 4.3055 24.6188 4.63483C25.0735 4.9655 25.2868 5.53483 25.1602 6.08283L24.3882 9.4215C24.3188 9.71883 24.3828 10.0322 24.5628 10.2788C24.7428 10.5255 25.0202 10.6828 25.3242 10.7095L28.7375 11.0068C29.2975 11.0562 29.7735 11.4348 29.9482 11.9695C30.1215 12.5042 29.9588 13.0908 29.5348 13.4588L26.9482 15.7055C26.7175 15.9055 26.5855 16.1962 26.5855 16.5015C26.5855 16.8068 26.7175 17.0975 26.9482 17.2975L29.5348 19.5442C29.9588 19.9122 30.1215 20.4988 29.9482 21.0335C29.7748 21.5682 29.2975 21.9468 28.7375 21.9962L25.3242 22.2935C25.0202 22.3202 24.7428 22.4775 24.5628 22.7242C24.3842 22.9708 24.3202 23.2842 24.3882 23.5815L25.1602 26.9202C25.2868 27.4682 25.0735 28.0375 24.6188 28.3682C24.1642 28.6988 23.5562 28.7255 23.0748 28.4348L20.1388 26.6695C19.8775 26.5122 19.5602 26.4762 19.2708 26.5708C18.9802 26.6655 18.7455 26.8802 18.6268 27.1615L17.2895 30.3162C17.0695 30.8308 16.5628 31.1668 16.0002 31.1668C15.4375 31.1668 14.9308 30.8308 14.7108 30.3135L13.3735 27.1588C13.2548 26.8775 13.0188 26.6628 12.7295 26.5682C12.4388 26.4735 12.1228 26.5095 11.8615 26.6668L8.92416 28.4335C8.44282 28.7228 7.83483 28.6962 7.38016 28.3668C6.92549 28.0362 6.71216 27.4668 6.83883 26.9188L7.61083 23.5802C7.68016 23.2828 7.61616 22.9695 7.43616 22.7228C7.25616 22.4762 6.97883 22.3188 6.67483 22.2922L3.26149 21.9948C2.70149 21.9455 2.22549 21.5668 2.05083 21.0322C1.87749 20.4975 2.04016 19.9108 2.46416 19.5428L5.05083 17.2962C5.28149 17.0962 5.41349 16.8055 5.41349 16.5002C5.41349 16.1948 5.28149 15.9042 5.05083 15.7042L2.46416 13.4575C2.04016 13.0895 1.87749 12.5028 2.05083 11.9682C2.22549 11.4335 2.70149 11.0548 3.26149 11.0055L6.67483 10.7082C6.97883 10.6815 7.25616 10.5242 7.43616 10.2775C7.61483 10.0308 7.67883 9.7175 7.61083 9.42016L6.83883 6.08283C6.71216 5.53483 6.92416 4.9655 7.37883 4.63483C7.83349 4.30416 8.44149 4.2775 8.92282 4.56816L11.8588 6.3335C12.1215 6.49083 12.4388 6.52683 12.7295 6.43216C13.0202 6.3375 13.2548 6.12283 13.3735 5.8415L14.7108 2.68683Z" fill="#5667EA"/>
<path id="Vector_2" fill-rule="evenodd" clip-rule="evenodd" d="M22.6663 16.5002C22.6663 20.1815 19.681 23.1668 15.9997 23.1668C12.3183 23.1668 9.33301 20.1815 9.33301 16.5002C9.33301 12.8188 12.3183 9.8335 15.9997 9.8335C19.681 9.8335 22.6663 12.8188 22.6663 16.5002Z" fill="#5667EA"/>
</g>
</svg>
