<svg width="32" height="32" viewBox="0 0 32 32" fill="none" xmlns="http://www.w3.org/2000/svg">
<g id="icons8-sun 1">
<path id="Vector" opacity="0.35" fill-rule="evenodd" clip-rule="evenodd" d="M14.7108 2.18659C14.9308 1.66925 15.4375 1.33325 16.0002 1.33325C16.5628 1.33325 17.0695 1.66925 17.2895 2.18659L18.6268 5.34125C18.7455 5.62259 18.9815 5.83725 19.2708 5.93192C19.5615 6.02659 19.8775 5.99059 20.1388 5.83325L23.0748 4.06792C23.5562 3.77859 24.1642 3.80525 24.6188 4.13459C25.0735 4.46525 25.2868 5.03458 25.1602 5.58259L24.3882 8.92125C24.3188 9.21859 24.3828 9.53192 24.5628 9.77859C24.7428 10.0253 25.0202 10.1826 25.3242 10.2093L28.7375 10.5066C29.2975 10.5559 29.7735 10.9346 29.9482 11.4693C30.1215 12.0039 29.9588 12.5906 29.5348 12.9586L26.9482 15.2053C26.7175 15.4053 26.5855 15.6959 26.5855 16.0013C26.5855 16.3066 26.7175 16.5973 26.9482 16.7973L29.5348 19.0439C29.9588 19.4119 30.1215 19.9986 29.9482 20.5333C29.7748 21.0679 29.2975 21.4466 28.7375 21.4959L25.3242 21.7933C25.0202 21.8199 24.7428 21.9773 24.5628 22.2239C24.3842 22.4706 24.3202 22.7839 24.3882 23.0813L25.1602 26.4199C25.2868 26.9679 25.0735 27.5373 24.6188 27.8679C24.1642 28.1986 23.5562 28.2253 23.0748 27.9346L20.1388 26.1693C19.8775 26.0119 19.5602 25.9759 19.2708 26.0706C18.9802 26.1653 18.7455 26.3799 18.6268 26.6613L17.2895 29.8159C17.0695 30.3306 16.5628 30.6666 16.0002 30.6666C15.4375 30.6666 14.9308 30.3306 14.7108 29.8133L13.3735 26.6586C13.2548 26.3773 13.0188 26.1626 12.7295 26.0679C12.4388 25.9733 12.1228 26.0093 11.8615 26.1666L8.92416 27.9333C8.44282 28.2226 7.83483 28.1959 7.38016 27.8666C6.92549 27.5359 6.71216 26.9666 6.83883 26.4186L7.61083 23.0799C7.68016 22.7826 7.61616 22.4693 7.43616 22.2226C7.25616 21.9759 6.97883 21.8186 6.67483 21.7919L3.26149 21.4946C2.70149 21.4453 2.22549 21.0666 2.05083 20.5319C1.87749 19.9973 2.04016 19.4106 2.46416 19.0426L5.05083 16.7959C5.28149 16.5959 5.41349 16.3053 5.41349 15.9999C5.41349 15.6946 5.28149 15.4039 5.05083 15.2039L2.46416 12.9573C2.04016 12.5893 1.87749 12.0026 2.05083 11.4679C2.22549 10.9333 2.70149 10.5546 3.26149 10.5053L6.67483 10.2079C6.97883 10.1813 7.25616 10.0239 7.43616 9.77725C7.61483 9.53059 7.67883 9.21725 7.61083 8.91992L6.83883 5.58259C6.71216 5.03458 6.92416 4.46525 7.37883 4.13459C7.83349 3.80392 8.44149 3.77725 8.92282 4.06792L11.8588 5.83325C12.1215 5.99059 12.4388 6.02659 12.7295 5.93192C13.0202 5.83725 13.2548 5.62259 13.3735 5.34125L14.7108 2.18659Z" fill="#DBEEA8"/>
<path id="Vector_2" fill-rule="evenodd" clip-rule="evenodd" d="M22.6663 15.9999C22.6663 19.6813 19.681 22.6666 15.9997 22.6666C12.3183 22.6666 9.33301 19.6813 9.33301 15.9999C9.33301 12.3186 12.3183 9.33325 15.9997 9.33325C19.681 9.33325 22.6663 12.3186 22.6663 15.9999Z" fill="#DBEEA8"/>
</g>
</svg>
