<svg width="24" height="24" viewBox="0 0 24 24" fill="none" xmlns="http://www.w3.org/2000/svg">
<g id="icons8-telegram 1">
<path id="Vector" opacity="0.35" d="M2.9261 13.098L6.0111 14.307C6.3371 14.435 6.5891 14.702 6.6991 15.034L7.9861 18.952C8.2601 19.787 9.2871 20.086 9.9661 19.528L12.1941 17.699C12.4761 17.467 12.8861 17.479 13.1551 17.727L16.0061 20.357C17.0411 21.312 18.7221 20.765 18.9971 19.384L21.9761 4.42297C22.1621 3.48797 21.2291 2.72497 20.3491 3.09297L2.8951 10.393C1.6871 10.9 1.7061 12.62 2.9261 13.098Z" fill="#DBEEA8"/>
<path id="Vector_2" d="M11.4578 16.2711L18.4478 7.10806C18.7758 6.67806 18.2368 6.12606 17.7998 6.44306L6.4668 14.6451C6.5648 14.7601 6.6508 14.8871 6.6988 15.0341L7.9858 18.9521C8.1118 19.3351 8.3988 19.5991 8.7358 19.7251C9.6388 19.9811 11.4578 16.2711 11.4578 16.2711Z" fill="#DBEEA8"/>
</g>
</svg>
