<svg width="16" height="16" viewBox="0 0 16 16" fill="none" xmlns="http://www.w3.org/2000/svg">
<g id="telegram">
<path id="Vector" d="M13.4152 2.125C13.2419 2.13265 13.0803 2.18315 12.9382 2.24063C12.8049 2.29421 12.296 2.51249 11.4944 2.85625C10.6921 3.20032 9.62973 3.65642 8.49648 4.14375C6.22999 5.11842 3.68185 6.21556 2.37669 6.77709C2.32761 6.79819 2.15637 6.8529 1.97461 6.99479C1.79285 7.13669 1.59961 7.43071 1.59961 7.75834C1.59961 8.02252 1.72551 8.28497 1.88398 8.44167C2.04246 8.59837 2.21014 8.67577 2.35378 8.73438C2.87493 8.94702 4.49126 9.60846 4.79648 9.73334C4.9039 10.0624 5.48894 11.852 5.62461 12.2906C5.71405 12.5801 5.79918 12.7613 5.91003 12.9052C5.96545 12.9771 6.02987 13.0402 6.10794 13.0896C6.13915 13.1093 6.17336 13.1245 6.20794 13.1385L6.21003 13.1396C6.21799 13.1428 6.22486 13.1482 6.23294 13.151C6.24819 13.1564 6.25838 13.157 6.27878 13.1615C6.36002 13.1877 6.44204 13.2042 6.51523 13.2042C6.82732 13.2042 7.01836 13.0323 7.01836 13.0323L7.02982 13.024L8.63503 11.6354L10.5819 13.4771C10.6093 13.5158 10.865 13.8667 11.4288 13.8667C11.7635 13.8667 12.0291 13.6987 12.1996 13.5198C12.3701 13.3409 12.4763 13.153 12.5215 12.9167V12.9156C12.5637 12.6923 14.3579 3.48125 14.3579 3.48125L14.3548 3.49375C14.4073 3.25401 14.4211 3.03074 14.3632 2.81042C14.3052 2.59009 14.1525 2.37914 13.9632 2.26563C13.7738 2.15214 13.5886 2.11735 13.4152 2.125ZM13.3152 3.23959C13.3127 3.25515 13.3172 3.24732 13.3132 3.26563L13.3121 3.27188L13.3111 3.27813C13.3111 3.27813 11.5391 12.3714 11.4736 12.7177C11.4784 12.6916 11.4564 12.7436 11.434 12.775C11.4022 12.7531 11.3371 12.725 11.3371 12.725L11.3267 12.7135L8.66732 10.1979L6.78711 11.8229L7.34648 9.58334C7.34648 9.58334 10.8431 5.96379 11.0538 5.75313C11.2234 5.58459 11.259 5.52584 11.259 5.46771C11.259 5.38984 11.2184 5.33334 11.1277 5.33334C11.0461 5.33334 10.9364 5.41267 10.8777 5.45C10.1134 5.93723 6.75791 7.89288 5.25378 8.76771C5.01474 8.66989 3.3541 7.99012 2.79128 7.76042C2.79554 7.75855 2.79413 7.75921 2.79857 7.75729C4.10407 7.19562 6.65114 6.09849 8.91732 5.12396C10.0504 4.63669 11.1136 4.18025 11.9152 3.83646C12.7046 3.49797 13.253 3.26501 13.3152 3.23959Z" fill="white"/>
</g>
</svg>
