<svg width="24" height="24" viewBox="0 0 24 24" fill="none" xmlns="http://www.w3.org/2000/svg">
<g id="icons8-whatsapp 1">
<path id="Vector" opacity="0.35" d="M11.9995 2C6.47653 2 1.99953 6.477 1.99953 12C1.99953 13.592 2.38153 15.091 3.04253 16.427L2.03753 20.446C1.80853 21.361 2.63753 22.191 3.55353 21.962L7.57253 20.957C8.90853 21.618 10.4075 22 11.9995 22C17.5225 22 21.9995 17.523 21.9995 12C21.9995 6.477 17.5225 2 11.9995 2Z" fill="#DBEEA8"/>
<path id="Vector_2" d="M16.3935 13.4672C15.5845 12.6582 14.2725 12.6582 13.4635 13.4672L12.9475 13.9832L10.0175 11.0532L10.5335 10.5372C11.3425 9.72824 11.3425 8.41624 10.5335 7.60724C9.72449 6.79824 8.41249 6.79824 7.60349 7.60724C7.08649 8.12424 6.90349 8.84624 7.04749 9.51124C7.17049 10.4302 7.65348 12.5402 9.55648 14.4432C11.4595 16.3462 13.5695 16.8292 14.4885 16.9522C15.1535 17.0962 15.8755 16.9132 16.3925 16.3962C17.2025 15.5872 17.2025 14.2762 16.3935 13.4672Z" fill="#DBEEA8"/>
</g>
</svg>
