<svg width="16" height="16" viewBox="0 0 16 16" fill="none" xmlns="http://www.w3.org/2000/svg">
<g id="whatsapp">
<path id="Vector" d="M7.99961 1.6C4.46521 1.6 1.59961 4.4656 1.59961 8C1.59961 9.20064 1.93686 10.32 2.51211 11.2802L1.6569 14.4L4.84336 13.5635C5.77527 14.0934 6.85107 14.4 7.99961 14.4C11.534 14.4 14.3996 11.5344 14.3996 8C14.3996 4.4656 11.534 1.6 7.99961 1.6ZM5.80898 5.01458C5.91298 5.01458 6.01984 5.01395 6.11211 5.01875C6.22624 5.02142 6.35047 5.02977 6.4694 5.29271C6.61073 5.60524 6.91848 6.38928 6.95794 6.46875C6.99741 6.54822 7.02538 6.64183 6.97044 6.74583C6.91818 6.8525 6.89099 6.91706 6.81419 7.01146C6.73473 7.10319 6.64765 7.21712 6.57565 7.28646C6.49618 7.36592 6.41413 7.45306 6.50586 7.61146C6.59759 7.76986 6.91618 8.28913 7.38711 8.70833C7.99244 9.24913 8.50318 9.41532 8.66211 9.49479C8.82104 9.57426 8.91308 9.56187 9.00482 9.45521C9.09922 9.35121 9.40128 8.99435 9.50794 8.83542C9.61194 8.67648 9.71811 8.70398 9.86211 8.75625C10.0082 8.80852 10.7876 9.19241 10.9465 9.27187C11.1054 9.35134 11.2096 9.39067 11.2496 9.45521C11.2907 9.52187 11.2907 9.83924 11.159 10.2094C11.0273 10.579 10.3804 10.9364 10.0902 10.9615C9.79743 10.9887 9.52418 11.0931 8.18711 10.5667C6.57431 9.93147 5.5572 8.27958 5.47773 8.17292C5.39827 8.06892 4.8319 7.31408 4.8319 6.53542C4.8319 5.75408 5.24156 5.37143 5.38503 5.2125C5.53116 5.05357 5.70232 5.01458 5.80898 5.01458Z" fill="white"/>
</g>
</svg>
