<svg width="24" height="24" viewBox="0 0 24 24" fill="none" xmlns="http://www.w3.org/2000/svg">
<g id="icons8-calendar-plus">
<path id="Vector" opacity="0.35" d="M15 19C15 16.791 16.791 15 19 15C19.732 15 20.41 15.211 21 15.555V6H3V18C3 19.657 4.343 21 6 21H15.555C15.211 20.41 15 19.732 15 19Z" fill="#5667EA"/>
<path id="Vector_2" d="M18 3H6C4.343 3 3 4.343 3 6V7H21V6C21 4.343 19.657 3 18 3Z" fill="#5667EA"/>
<path id="Vector_3" d="M10 19C10.5523 19 11 18.5523 11 18C11 17.4477 10.5523 17 10 17C9.44772 17 9 17.4477 9 18C9 18.5523 9.44772 19 10 19Z" fill="#5667EA"/>
<path id="Vector_4" d="M6 19C6.55228 19 7 18.5523 7 18C7 17.4477 6.55228 17 6 17C5.44772 17 5 17.4477 5 18C5 18.5523 5.44772 19 6 19Z" fill="#5667EA"/>
<path id="Vector_5" d="M6 15C6.55228 15 7 14.5523 7 14C7 13.4477 6.55228 13 6 13C5.44772 13 5 13.4477 5 14C5 14.5523 5.44772 15 6 15Z" fill="#5667EA"/>
<path id="Vector_6" d="M10 15C10.5523 15 11 14.5523 11 14C11 13.4477 10.5523 13 10 13C9.44772 13 9 13.4477 9 14C9 14.5523 9.44772 15 10 15Z" fill="#5667EA"/>
<path id="Vector_7" d="M14 15C14.5523 15 15 14.5523 15 14C15 13.4477 14.5523 13 14 13C13.4477 13 13 13.4477 13 14C13 14.5523 13.4477 15 14 15Z" fill="#5667EA"/>
<path id="Vector_8" d="M18 11C18.5523 11 19 10.5523 19 10C19 9.44772 18.5523 9 18 9C17.4477 9 17 9.44772 17 10C17 10.5523 17.4477 11 18 11Z" fill="#5667EA"/>
<path id="Vector_9" d="M14 11C14.5523 11 15 10.5523 15 10C15 9.44772 14.5523 9 14 9C13.4477 9 13 9.44772 13 10C13 10.5523 13.4477 11 14 11Z" fill="#5667EA"/>
<path id="Vector_10" d="M10 11C10.5523 11 11 10.5523 11 10C11 9.44772 10.5523 9 10 9C9.44772 9 9 9.44772 9 10C9 10.5523 9.44772 11 10 11Z" fill="#5667EA"/>
<path id="Vector_11" opacity="0.35" d="M19 23C21.2091 23 23 21.2091 23 19C23 16.7909 21.2091 15 19 15C16.7909 15 15 16.7909 15 19C15 21.2091 16.7909 23 19 23Z" fill="#5667EA"/>
<path id="Vector_12" d="M19 14C16.24 14 14 16.24 14 19C14 21.76 16.24 24 19 24C21.76 24 24 21.76 24 19C24 16.24 21.76 14 19 14ZM21.5 20H20V21.5C20 22.05 19.55 22.5 19 22.5C18.45 22.5 18 22.05 18 21.5V20H16.5C15.95 20 15.5 19.55 15.5 19C15.5 18.45 15.95 18 16.5 18H18V16.5C18 15.95 18.45 15.5 19 15.5C19.55 15.5 20 15.95 20 16.5V18H21.5C22.05 18 22.5 18.45 22.5 19C22.5 19.55 22.05 20 21.5 20Z" fill="#5667EA"/>
</g>
</svg>
