<svg width="160" height="22" viewBox="0 0 160 22" fill="none" xmlns="http://www.w3.org/2000/svg">
<g id="logo">
<g id="logo_2">
<path d="M25.8239 8.28634V6.86094H27.3573V5.06838C27.3573 3.14624 28.4588 2.45514 30.3161 2.45514C30.6833 2.45514 30.964 2.47673 31.2016 2.49833V3.98853C30.8992 3.96693 30.8128 3.96693 30.6401 3.96693C29.517 3.96693 29.1067 4.24769 29.1067 5.15477V6.86094H31.18V8.28634H29.1067V18.0266H27.3573V8.28634H25.8239ZM32.6702 18.0266V6.86094H34.4196V18.0266H32.6702ZM32.6702 4.74442V2.58472H34.4196V4.74442H32.6702Z" fill="#1D2130"/>
<path d="M37.9962 6.86094V8.32954H38.0394C38.8385 7.27128 39.9616 6.60177 41.5813 6.60177C43.9138 6.60177 45.3392 7.876 45.3392 10.1869V18.0266H43.5899V10.3381C43.5899 8.89106 42.6396 8.07037 41.063 8.07037C39.2921 8.07037 37.9962 9.323 37.9962 11.1588V18.0266H36.2469V6.86094H37.9962Z" fill="#1D2130"/>
<path d="M51.4365 18.3506C48.3913 18.3506 46.4908 16.0613 46.4908 12.4762C46.4908 8.76148 48.6289 6.60177 51.3933 6.60177C52.9699 6.60177 54.1793 7.37927 54.8921 8.43752H54.9352V2.58472H56.6846V18.0266H54.9352V16.666H54.8921C54.0498 17.7459 53.0131 18.3506 51.4365 18.3506ZM51.5013 16.882C53.985 16.882 55.0432 15.0246 55.0432 12.4978C55.0432 9.90612 53.7906 8.09197 51.4797 8.09197C49.3632 8.09197 48.2833 9.99251 48.2833 12.4978C48.2833 15.0246 49.3632 16.882 51.5013 16.882Z" fill="#1D2130"/>
<path d="M60.264 2.58472V8.32954H60.3072C61.1063 7.27128 62.2293 6.60177 63.8491 6.60177C66.1816 6.60177 67.607 7.876 67.607 10.1869V18.0266H65.8576V10.3381C65.8576 8.89106 64.9073 8.07037 63.3308 8.07037C61.5598 8.07037 60.264 9.323 60.264 11.1588V18.0266H58.5146V2.58472H60.264Z" fill="#1D2130"/>
<path d="M74.1578 18.329C70.8319 18.329 68.7585 15.6941 68.7585 12.4546C68.7585 9.21502 70.8319 6.58017 74.1578 6.58017C77.5054 6.58017 79.5355 9.21502 79.5355 12.4546C79.5355 15.6941 77.5054 18.329 74.1578 18.329ZM74.1578 16.8604C76.5335 16.8604 77.7429 14.9166 77.7429 12.4546C77.7429 9.99251 76.5335 8.02718 74.1578 8.02718C71.7821 8.02718 70.5511 9.99251 70.5511 12.4546C70.5511 14.9166 71.7821 16.8604 74.1578 16.8604Z" fill="#1D2130"/>
<path d="M80.7402 18.0266V6.86094H82.4895V8.45912H82.5327C83.2239 7.37927 84.4117 6.60177 85.8155 6.60177C87.1761 6.60177 88.256 7.29288 88.7311 8.5887H88.7743C89.487 7.31447 90.826 6.60177 92.1866 6.60177C94.1736 6.60177 95.5774 7.876 95.5774 10.1869V18.0266H93.828V10.2733C93.828 8.89106 92.8993 8.07037 91.7763 8.07037C90.3293 8.07037 89.0335 9.323 89.0335 11.0724V18.0266H87.2841V10.2733C87.2841 8.89106 86.5066 8.07037 85.362 8.07037C84.0014 8.07037 82.4895 9.323 82.4895 11.0724V18.0266H80.7402Z" fill="#1D2130"/>
<path d="M102.12 18.329C98.7078 18.329 96.7208 15.6941 96.7208 12.4546C96.7208 9.21502 98.8373 6.58017 102.012 6.58017C105.36 6.58017 107.152 9.17182 107.152 12.8649H98.5134C98.643 15.1326 99.874 16.8604 102.12 16.8604C103.74 16.8604 104.82 16.0829 105.208 14.5711H106.915C106.396 16.9684 104.647 18.329 102.12 18.329ZM102.012 7.96239C99.9388 7.96239 98.8158 9.51737 98.5566 11.5475H105.273C105.165 9.323 104.021 7.96239 102.012 7.96239Z" fill="#1D2130"/>
<path d="M107.874 18.0266V15.8885H109.969V18.0266H107.874Z" fill="#1D2130"/>
<path d="M109.981 8.28634V6.86094H111.601V3.34062H113.35V6.86094H115.51V8.28634H113.35V15.543C113.35 16.3204 113.76 16.5796 114.473 16.5796C114.818 16.5796 115.207 16.4932 115.402 16.4284H115.466V17.9402C115.056 18.0266 114.581 18.0914 114.063 18.0914C112.637 18.0914 111.601 17.5083 111.601 15.9317V8.28634H109.981Z" fill="#1D2130"/>
<path d="M121.444 18.329C118.118 18.329 116.044 15.6941 116.044 12.4546C116.044 9.21502 118.118 6.58017 121.444 6.58017C124.791 6.58017 126.821 9.21502 126.821 12.4546C126.821 15.6941 124.791 18.329 121.444 18.329ZM121.444 16.8604C123.819 16.8604 125.029 14.9166 125.029 12.4546C125.029 9.99251 123.819 8.02718 121.444 8.02718C119.068 8.02718 117.837 9.99251 117.837 12.4546C117.837 14.9166 119.068 16.8604 121.444 16.8604Z" fill="#1D2130"/>
<path d="M132.345 18.3506C129.3 18.3506 127.4 16.0613 127.4 12.4762C127.4 8.76148 129.538 6.60177 132.302 6.60177C133.879 6.60177 135.088 7.37927 135.801 8.43752H135.844V2.58472H137.593V18.0266H135.844V16.666H135.801C134.959 17.7459 133.922 18.3506 132.345 18.3506ZM132.41 16.882C134.894 16.882 135.952 15.0246 135.952 12.4978C135.952 9.90612 134.699 8.09197 132.389 8.09197C130.272 8.09197 129.192 9.99251 129.192 12.4978C129.192 15.0246 130.272 16.882 132.41 16.882Z" fill="#1D2130"/>
<path d="M148.192 18.1346C147.047 18.1346 146.443 17.6163 146.27 16.4716H146.248C145.579 17.3355 144.434 18.2426 142.533 18.2426C140.417 18.2426 138.754 17.2491 138.754 15.1326C138.754 12.4978 140.827 11.9578 143.613 11.5259C145.19 11.2883 146.291 11.1372 146.291 9.92772C146.291 8.67509 145.384 7.96239 143.786 7.96239C141.972 7.96239 141.065 8.73988 141 10.4245H139.315C139.38 8.26474 140.806 6.64497 143.764 6.64497C146.14 6.64497 147.889 7.53044 147.889 10.1869V15.4998C147.889 16.4068 148.105 16.9036 149.077 16.6876H149.142V17.9618C148.926 18.0482 148.645 18.1346 148.192 18.1346ZM142.922 16.9036C145.255 16.9036 146.313 15.1974 146.313 13.9016V12.001C145.73 12.3682 144.715 12.6489 143.764 12.8217C142.015 13.1457 140.611 13.448 140.611 15.0894C140.611 16.5796 141.778 16.9036 142.922 16.9036Z" fill="#1D2130"/>
<path d="M151.107 21.7197C150.438 21.7197 150.006 21.6765 149.531 21.4821V19.9272H149.617C149.855 20.0567 150.222 20.1647 150.805 20.1647C151.539 20.1647 152.036 19.884 152.468 18.8041L152.9 17.7027L148.537 6.86094H150.438L153.073 13.8152C153.418 14.7439 153.829 15.9965 153.829 15.9965H153.872C153.872 15.9965 154.261 14.7439 154.606 13.8152L157.155 6.86094H159.012L154.239 18.9337C153.332 21.2446 152.468 21.7197 151.107 21.7197Z" fill="#1D2130"/>
<path d="M9.00137 5.55226H6.40877V7.98114H9.00137V5.55226Z" fill="#1D2130"/>
<path d="M19.7246 4.27846H22.3319C21.2522 2.65921 19.4394 3.35349 19.3854 3.37431L21.1464 1.58233C19.3094 0.856536 18.421 2.94502 18.421 2.94502C17.3846 0.900984 15.6512 1.55251 15.6512 1.55251L17.4437 3.44858C15.5623 2.42628 14.4511 4.36679 14.4511 4.36679H16.9103C15.0435 5.25519 15.5769 7.09218 15.5769 7.09218L18.0806 4.70719L17.9169 9.74386L14.3622 7.90687V4.9148L7.7417 1.37528L0.987305 4.98906V18.113H20.5539V11.2106L18.969 10.3222L18.762 4.69256L21.1019 7.03367C22.1091 5.47855 19.7246 4.27846 19.7246 4.27846ZM13.3258 17.0164H8.30489V11.8622L13.3258 9.21049V17.0164ZM13.3258 7.89224L7.13405 11.1662V17.0761H2.1874V5.62653L7.66799 2.69353L13.3264 5.62596V7.89224H13.3258ZM19.414 11.8768V17.0164H14.392V9.21049L19.414 11.8768Z" fill="#1D2130"/>
<path d="M9.00137 5.55226H6.40877V7.98114H9.00137V5.55226Z" fill="#1D2130"/>
<path d="M9.00137 5.55226H6.40877V7.98114H9.00137V5.55226Z" fill="#1D2130"/>
</g>
</g>
</svg>
